<svg width="16" height="16" viewBox="0 0 16 16" fill="none" xmlns="http://www.w3.org/2000/svg">
<g clip-path="url(#clip0_1005_67455)">
<path fill-rule="evenodd" clip-rule="evenodd" d="M14.5109 12.3634L9.28381 7.69749L10.1107 6.87064L6.89175 3.63696L3.64331 6.88541L6.86222 10.1043L7.68907 9.27747L12.355 14.5045C12.9456 15.1542 13.9497 15.1838 14.5699 14.5635C15.19 13.9583 15.1605 12.9395 14.5108 12.3636L14.5109 12.3634Z" fill="#22C55E"/>
<path fill-rule="evenodd" clip-rule="evenodd" d="M2.75738 7.43172C2.49165 7.16599 2.06339 7.16599 1.81237 7.43172L1.19222 8.05188C0.926488 8.3176 0.926488 8.74586 1.19222 8.99688L4.75074 12.5702C5.01647 12.8359 5.44472 12.8359 5.69574 12.5702L6.3159 11.95C6.58163 11.6843 6.58163 11.256 6.3159 11.005L2.75738 7.43172Z" fill="#22C55E"/>
<path fill-rule="evenodd" clip-rule="evenodd" d="M10.9967 6.32431C11.2624 6.59004 11.6907 6.59004 11.9417 6.32431L12.5619 5.70416C12.8276 5.43843 12.8276 5.01017 12.5619 4.75916L8.98858 1.18587C8.72285 0.92014 8.29459 0.92014 8.04357 1.18587L7.42342 1.80603C7.15769 2.07176 7.15769 2.50001 7.42342 2.75103L10.9967 6.32431Z" fill="#22C55E"/>
</g>
<defs>
<clipPath id="clip0_1005_67455">
<rect width="16" height="16" fill="white"/>
</clipPath>
</defs>
</svg>
