<svg width="31" height="30" viewBox="0 0 31 30" fill="none" xmlns="http://www.w3.org/2000/svg">
<path d="M16 5.65489C16.6569 4.91019 17.5249 4.38318 18.4887 4.14397C19.4525 3.90476 20.4662 3.96471 21.3951 4.31582C22.3239 4.66694 23.1238 5.29259 23.6884 6.10951C24.2529 6.92643 24.5553 7.89589 24.5553 8.88889C24.5553 9.88189 24.2529 10.8514 23.6884 11.6683C23.1238 12.4852 22.3239 13.1108 21.3951 13.462C20.4662 13.8131 19.4525 13.873 18.4887 13.6338C17.5249 13.3946 16.6569 12.8676 16 12.1229M19.6667 26H27V24.7778C27.0002 23.4904 26.6615 22.2257 26.0179 21.1107C25.3743 19.9958 24.4486 19.0699 23.3338 18.4261C22.2189 17.7824 20.9543 17.4435 19.6669 17.4434C18.3796 17.4434 17.1149 17.7822 16 18.4259M19.6667 26H5V24.7778C5 22.8329 5.77262 20.9676 7.14788 19.5923C8.52315 18.2171 10.3884 17.4444 12.3333 17.4444C14.2783 17.4444 16.1435 18.2171 17.5188 19.5923C18.894 20.9676 19.6667 22.8329 19.6667 24.7778V26ZM17.2222 8.88889C17.2222 10.1855 16.7071 11.429 15.7903 12.3459C14.8735 13.2627 13.6299 13.7778 12.3333 13.7778C11.0367 13.7778 9.79321 13.2627 8.87637 12.3459C7.95952 11.429 7.44444 10.1855 7.44444 8.88889C7.44444 7.59228 7.95952 6.34877 8.87637 5.43192C9.79321 4.51508 11.0367 4 12.3333 4C13.6299 4 14.8735 4.51508 15.7903 5.43192C16.7071 6.34877 17.2222 7.59228 17.2222 8.88889V8.88889Z" stroke="#D4D4D8" stroke-width="1.5" stroke-linecap="round" stroke-linejoin="round"/>
</svg>
