<svg width="31" height="30" viewBox="0 0 31 30" fill="none" xmlns="http://www.w3.org/2000/svg">
<path d="M15.5 5.4425C16.1718 4.68088 17.0596 4.14189 18.0453 3.89724C19.0309 3.6526 20.0677 3.7139 21.0177 4.073C21.9677 4.4321 22.7857 5.07196 23.3631 5.90745C23.9405 6.74294 24.2497 7.73443 24.2497 8.75C24.2497 9.76557 23.9405 10.7571 23.3631 11.5926C22.7857 12.428 21.9677 13.0679 21.0177 13.427C20.0677 13.7861 19.0309 13.8474 18.0453 13.6028C17.0596 13.3581 16.1718 12.8191 15.5 12.0575M19.25 26.25H26.75V25C26.7502 23.6834 26.4038 22.3899 25.7456 21.2496C25.0874 20.1093 24.1406 19.1624 23.0005 18.504C21.8603 17.8456 20.5669 17.499 19.2503 17.4989C17.9336 17.4989 16.6402 17.8454 15.5 18.5038M19.25 26.25H4.25V25C4.25 23.0109 5.04018 21.1032 6.4467 19.6967C7.85322 18.2902 9.76088 17.5 11.75 17.5C13.7391 17.5 15.6468 18.2902 17.0533 19.6967C18.4598 21.1032 19.25 23.0109 19.25 25V26.25ZM16.75 8.75C16.75 10.0761 16.2232 11.3479 15.2855 12.2855C14.3479 13.2232 13.0761 13.75 11.75 13.75C10.4239 13.75 9.15215 13.2232 8.21447 12.2855C7.27678 11.3479 6.75 10.0761 6.75 8.75C6.75 7.42392 7.27678 6.15215 8.21447 5.21447C9.15215 4.27679 10.4239 3.75 11.75 3.75C13.0761 3.75 14.3479 4.27679 15.2855 5.21447C16.2232 6.15215 16.75 7.42392 16.75 8.75V8.75Z" stroke="#D4D4D8" stroke-width="1.5" stroke-linecap="round" stroke-linejoin="round"/>
</svg>
