<svg width="31" height="30" viewBox="0 0 31 30" fill="none" xmlns="http://www.w3.org/2000/svg">
<path d="M25.5156 12.9488L16.2068 4.41918C15.9042 4.14188 15.5056 3.99182 15.0945 4.00034C14.6834 4.00887 14.2915 4.17533 14.0008 4.46493L5.43936 12.9919L5 13.4295V26H13.25V18.1567H17.75V26H26V13.3927L25.5156 12.9488ZM15.1268 5.49399C15.14 5.49399 15.1318 5.49684 15.1262 5.50239C15.1203 5.49684 15.1136 5.49399 15.1268 5.49399ZM24.5 24.506H19.25V18.1567C19.25 17.7605 19.092 17.3805 18.8107 17.1003C18.5294 16.8201 18.1478 16.6627 17.75 16.6627H13.25C12.8522 16.6627 12.4706 16.8201 12.1893 17.1003C11.908 17.3805 11.75 17.7605 11.75 18.1567V24.506H6.5V14.0483L15.1268 5.5213L15.1279 5.51967L24.5 14.0483V24.506Z" fill="#D4D4D8"/>
</svg>
