<svg width="30" height="30" viewBox="0 0 30 30" fill="none" xmlns="http://www.w3.org/2000/svg">
<path d="M5 6.25C5 5.91848 5.1317 5.60054 5.36612 5.36612C5.60054 5.1317 5.91848 5 6.25 5H23.75C24.0815 5 24.3995 5.1317 24.6339 5.36612C24.8683 5.60054 25 5.91848 25 6.25V8.75C25 9.08152 24.8683 9.39946 24.6339 9.63388C24.3995 9.8683 24.0815 10 23.75 10H6.25C5.91848 10 5.60054 9.8683 5.36612 9.63388C5.1317 9.39946 5 9.08152 5 8.75V6.25ZM5 16.25C5 15.9185 5.1317 15.6005 5.36612 15.3661C5.60054 15.1317 5.91848 15 6.25 15H13.75C14.0815 15 14.3995 15.1317 14.6339 15.3661C14.8683 15.6005 15 15.9185 15 16.25V23.75C15 24.0815 14.8683 24.3995 14.6339 24.6339C14.3995 24.8683 14.0815 25 13.75 25H6.25C5.91848 25 5.60054 24.8683 5.36612 24.6339C5.1317 24.3995 5 24.0815 5 23.75V16.25ZM20 16.25C20 15.9185 20.1317 15.6005 20.3661 15.3661C20.6005 15.1317 20.9185 15 21.25 15H23.75C24.0815 15 24.3995 15.1317 24.6339 15.3661C24.8683 15.6005 25 15.9185 25 16.25V23.75C25 24.0815 24.8683 24.3995 24.6339 24.6339C24.3995 24.8683 24.0815 25 23.75 25H21.25C20.9185 25 20.6005 24.8683 20.3661 24.6339C20.1317 24.3995 20 24.0815 20 23.75V16.25Z" stroke="#D4D4D8" stroke-width="1.5" stroke-linecap="round" stroke-linejoin="round"/>
</svg>
