<svg width="31" height="30" viewBox="0 0 31 30" fill="none" xmlns="http://www.w3.org/2000/svg">
<path d="M4.5 5.375C4.5 5.01033 4.64487 4.66059 4.90273 4.40273C5.16059 4.14487 5.51033 4 5.875 4H25.125C25.4897 4 25.8394 4.14487 26.0973 4.40273C26.3551 4.66059 26.5 5.01033 26.5 5.375V8.125C26.5 8.48967 26.3551 8.83941 26.0973 9.09727C25.8394 9.35513 25.4897 9.5 25.125 9.5H5.875C5.51033 9.5 5.16059 9.35513 4.90273 9.09727C4.64487 8.83941 4.5 8.48967 4.5 8.125V5.375ZM4.5 16.375C4.5 16.0103 4.64487 15.6606 4.90273 15.4027C5.16059 15.1449 5.51033 15 5.875 15H14.125C14.4897 15 14.8394 15.1449 15.0973 15.4027C15.3551 15.6606 15.5 16.0103 15.5 16.375V24.625C15.5 24.9897 15.3551 25.3394 15.0973 25.5973C14.8394 25.8551 14.4897 26 14.125 26H5.875C5.51033 26 5.16059 25.8551 4.90273 25.5973C4.64487 25.3394 4.5 24.9897 4.5 24.625V16.375ZM21 16.375C21 16.0103 21.1449 15.6606 21.4027 15.4027C21.6606 15.1449 22.0103 15 22.375 15H25.125C25.4897 15 25.8394 15.1449 26.0973 15.4027C26.3551 15.6606 26.5 16.0103 26.5 16.375V24.625C26.5 24.9897 26.3551 25.3394 26.0973 25.5973C25.8394 25.8551 25.4897 26 25.125 26H22.375C22.0103 26 21.6606 25.8551 21.4027 25.5973C21.1449 25.3394 21 24.9897 21 24.625V16.375Z" stroke="#D4D4D8" stroke-width="1.5" stroke-linecap="round" stroke-linejoin="round"/>
</svg>
