<svg width="31" height="30" viewBox="0 0 31 30" fill="none" xmlns="http://www.w3.org/2000/svg">
<path d="M17.375 21.0938H21.5938M21.5938 21.0938H25.8125M21.5938 21.0938V16.875M21.5938 21.0938V25.3125M8 13.125H10.8125C11.5584 13.125 12.2738 12.8287 12.8012 12.3012C13.3287 11.7738 13.625 11.0584 13.625 10.3125V7.5C13.625 6.75408 13.3287 6.03871 12.8012 5.51126C12.2738 4.98382 11.5584 4.6875 10.8125 4.6875H8C7.25408 4.6875 6.53871 4.98382 6.01126 5.51126C5.48382 6.03871 5.1875 6.75408 5.1875 7.5V10.3125C5.1875 11.0584 5.48382 11.7738 6.01126 12.3012C6.53871 12.8287 7.25408 13.125 8 13.125ZM8 25.3125H10.8125C11.5584 25.3125 12.2738 25.0162 12.8012 24.4887C13.3287 23.9613 13.625 23.2459 13.625 22.5V19.6875C13.625 18.9416 13.3287 18.2262 12.8012 17.6988C12.2738 17.1713 11.5584 16.875 10.8125 16.875H8C7.25408 16.875 6.53871 17.1713 6.01126 17.6988C5.48382 18.2262 5.1875 18.9416 5.1875 19.6875V22.5C5.1875 23.2459 5.48382 23.9613 6.01126 24.4887C6.53871 25.0162 7.25408 25.3125 8 25.3125ZM20.1875 13.125H23C23.7459 13.125 24.4613 12.8287 24.9887 12.3012C25.5162 11.7738 25.8125 11.0584 25.8125 10.3125V7.5C25.8125 6.75408 25.5162 6.03871 24.9887 5.51126C24.4613 4.98382 23.7459 4.6875 23 4.6875H20.1875C19.4416 4.6875 18.7262 4.98382 18.1988 5.51126C17.6713 6.03871 17.375 6.75408 17.375 7.5V10.3125C17.375 11.0584 17.6713 11.7738 18.1988 12.3012C18.7262 12.8287 19.4416 13.125 20.1875 13.125Z" stroke="#D4D4D8" stroke-width="1.5" stroke-linecap="round" stroke-linejoin="round"/>
</svg>
