<svg width="31" height="30" viewBox="0 0 31 30" fill="none" xmlns="http://www.w3.org/2000/svg">
<path d="M25.8125 4.92188H5.1875C4.75238 4.92188 4.33508 5.09473 4.0274 5.4024C3.71973 5.71008 3.54688 6.12738 3.54688 6.5625V23.4375C3.54688 23.8726 3.71973 24.2899 4.0274 24.5976C4.33508 24.9053 4.75238 25.0781 5.1875 25.0781H25.8125C26.2476 25.0781 26.6649 24.9053 26.9726 24.5976C27.2803 24.2899 27.4531 23.8726 27.4531 23.4375V6.5625C27.4531 6.12738 27.2803 5.71008 26.9726 5.4024C26.6649 5.09473 26.2476 4.92188 25.8125 4.92188ZM5.1875 6.32812H25.8125C25.8747 6.32812 25.9343 6.35282 25.9782 6.39677C26.0222 6.44073 26.0469 6.50034 26.0469 6.5625V19.1684L22.5934 15.7148C22.441 15.5625 22.2601 15.4416 22.0611 15.3592C21.862 15.2767 21.6487 15.2343 21.4332 15.2343C21.2177 15.2343 21.0044 15.2767 20.8053 15.3592C20.6063 15.4416 20.4254 15.5625 20.273 15.7148L17.7629 18.225L12.4414 12.9023C12.2891 12.75 12.1082 12.6291 11.9091 12.5467C11.7101 12.4642 11.4967 12.4218 11.2812 12.4218C11.0658 12.4218 10.8524 12.4642 10.6534 12.5467C10.4543 12.6291 10.2734 12.75 10.1211 12.9023L4.95312 18.0703V6.5625C4.95312 6.50034 4.97782 6.44073 5.02177 6.39677C5.06573 6.35282 5.12534 6.32812 5.1875 6.32812ZM4.95312 23.4375V20.059L11.1148 13.8973C11.1366 13.8753 11.1626 13.8579 11.1911 13.846C11.2197 13.8341 11.2503 13.8279 11.2812 13.8279C11.3122 13.8279 11.3428 13.8341 11.3714 13.846C11.3999 13.8579 11.4259 13.8753 11.4477 13.8973L21.2223 23.6719H5.1875C5.12534 23.6719 5.06573 23.6472 5.02177 23.6032C4.97782 23.5593 4.95312 23.4997 4.95312 23.4375ZM25.8125 23.6719H23.2109L18.7578 19.2188L21.2668 16.7086C21.2886 16.6868 21.3144 16.6695 21.3429 16.6577C21.3713 16.6459 21.4018 16.6399 21.4326 16.6399C21.4634 16.6399 21.4939 16.6459 21.5224 16.6577C21.5508 16.6695 21.5767 16.6868 21.5984 16.7086L26.0516 21.1617V23.4375C26.0516 23.4687 26.0454 23.4995 26.0333 23.5283C26.0212 23.557 26.0035 23.5831 25.9813 23.6049C25.959 23.6267 25.9326 23.6439 25.9036 23.6554C25.8747 23.6669 25.8437 23.6725 25.8125 23.6719ZM17.6094 11.7188C17.6094 11.487 17.6781 11.2604 17.8069 11.0677C17.9356 10.875 18.1187 10.7248 18.3328 10.6361C18.5469 10.5474 18.7825 10.5242 19.0099 10.5694C19.2372 10.6146 19.446 10.7262 19.6099 10.8901C19.7738 11.054 19.8854 11.2628 19.9306 11.4901C19.9758 11.7174 19.9526 11.9531 19.8639 12.1672C19.7752 12.3813 19.625 12.5644 19.4323 12.6931C19.2396 12.8219 19.013 12.8906 18.7812 12.8906C18.4704 12.8906 18.1724 12.7672 17.9526 12.5474C17.7328 12.3276 17.6094 12.0296 17.6094 11.7188Z" fill="#D4D4D8"/>
</svg>
