<svg width="31" height="30" viewBox="0 0 31 30" fill="none" xmlns="http://www.w3.org/2000/svg">
<path d="M6.75 10H24.25M6.75 10C6.08696 10 5.45107 9.73661 4.98223 9.26777C4.51339 8.79893 4.25 8.16304 4.25 7.5C4.25 6.83696 4.51339 6.20107 4.98223 5.73223C5.45107 5.26339 6.08696 5 6.75 5H24.25C24.913 5 25.5489 5.26339 26.0178 5.73223C26.4866 6.20107 26.75 6.83696 26.75 7.5C26.75 8.16304 26.4866 8.79893 26.0178 9.26777C25.5489 9.73661 24.913 10 24.25 10M6.75 10V22.5C6.75 23.163 7.01339 23.7989 7.48223 24.2678C7.95107 24.7366 8.58696 25 9.25 25H21.75C22.413 25 23.0489 24.7366 23.5178 24.2678C23.9866 23.7989 24.25 23.163 24.25 22.5V10M13 15H18" stroke="#D4D4D8" stroke-width="1.5" stroke-linecap="round" stroke-linejoin="round"/>
</svg>
