<svg width="31" height="30" viewBox="0 0 31 30" fill="none" xmlns="http://www.w3.org/2000/svg">
<path d="M7.44444 9.88889H24.5556M7.44444 9.88889C6.79614 9.88889 6.17438 9.63135 5.71596 9.17293C5.25754 8.71451 5 8.09275 5 7.44444C5 6.79614 5.25754 6.17438 5.71596 5.71596C6.17438 5.25754 6.79614 5 7.44444 5H24.5556C25.2039 5 25.8256 5.25754 26.284 5.71596C26.7425 6.17438 27 6.79614 27 7.44444C27 8.09275 26.7425 8.71451 26.284 9.17293C25.8256 9.63135 25.2039 9.88889 24.5556 9.88889M7.44444 9.88889V22.1111C7.44444 22.7594 7.70198 23.3812 8.16041 23.8396C8.61883 24.298 9.24058 24.5556 9.88889 24.5556H22.1111C22.7594 24.5556 23.3812 24.298 23.8396 23.8396C24.298 23.3812 24.5556 22.7594 24.5556 22.1111V9.88889M13.5556 14.7778H18.4444" stroke="#D4D4D8" stroke-width="1.5" stroke-linecap="round" stroke-linejoin="round"/>
</svg>
