<svg width="32" height="30" viewBox="0 0 32 30" fill="none" xmlns="http://www.w3.org/2000/svg">
<path d="M4.33333 8.33268H27.6667M4.33333 8.33268C3.44928 8.33268 2.60143 7.98149 1.97631 7.35637C1.35119 6.73125 1 5.8834 1 4.99935C1 4.11529 1.35119 3.26745 1.97631 2.64233C2.60143 2.0172 3.44928 1.66602 4.33333 1.66602H27.6667C28.5507 1.66602 29.3986 2.0172 30.0237 2.64233C30.6488 3.26745 31 4.11529 31 4.99935C31 5.8834 30.6488 6.73125 30.0237 7.35637C29.3986 7.98149 28.5507 8.33268 27.6667 8.33268M4.33333 8.33268V24.9994C4.33333 25.8834 4.68452 26.7313 5.30964 27.3564C5.93477 27.9815 6.78261 28.3327 7.66667 28.3327H24.3333C25.2174 28.3327 26.0652 27.9815 26.6904 27.3564C27.3155 26.7313 27.6667 25.8834 27.6667 24.9994V8.33268M12.6667 14.9993H19.3333" stroke="#A1A1AA" stroke-width="2" stroke-linecap="round" stroke-linejoin="round"/>
</svg>
