<svg width="31" height="30" viewBox="0 0 31 30" fill="none" xmlns="http://www.w3.org/2000/svg">
<path d="M24.875 17.8125V14.5312C24.875 13.4124 24.4305 12.3393 23.6394 11.5481C22.8482 10.757 21.7751 10.3125 20.6562 10.3125H18.7812C18.4083 10.3125 18.0506 10.1643 17.7869 9.90062C17.5232 9.6369 17.375 9.27921 17.375 8.90625V7.03125C17.375 5.91237 16.9305 4.83931 16.1394 4.04814C15.3482 3.25697 14.2751 2.8125 13.1562 2.8125H10.8125M10.8125 18.75H20.1875M10.8125 22.5H15.5M13.625 2.8125H7.53125C6.755 2.8125 6.125 3.4425 6.125 4.21875V25.7812C6.125 26.5575 6.755 27.1875 7.53125 27.1875H23.4688C24.245 27.1875 24.875 26.5575 24.875 25.7812V14.0625C24.875 11.0788 23.6897 8.21733 21.58 6.10755C19.4702 3.99776 16.6087 2.8125 13.625 2.8125V2.8125Z" stroke="#D4D4D8" stroke-width="1.5" stroke-linecap="round" stroke-linejoin="round"/>
</svg>
