<?xml version="1.0" encoding="utf-8"?>
<!-- Generator: Adobe Illustrator 27.8.1, SVG Export Plug-In . SVG Version: 6.00 Build 0)  -->
<svg version="1.1" id="Layer_1" xmlns="http://www.w3.org/2000/svg" xmlns:xlink="http://www.w3.org/1999/xlink" x="0px" y="0px"
	 viewBox="0 0 31 30" style="enable-background:new 0 0 31 30;" xml:space="preserve">
<style type="text/css">
	.st0{fill:none;stroke:#D4D4D8;stroke-width:1.5;stroke-linecap:round;stroke-linejoin:round;}
</style>
<path class="st0" d="M24.9,17.8v-3.3c0-1.1-0.4-2.2-1.2-3c-0.8-0.8-1.9-1.2-3-1.2h-1.9c-0.4,0-0.7-0.1-1-0.4c-0.3-0.3-0.4-0.6-0.4-1
	V7c0-1.1-0.4-2.2-1.2-3c-0.8-0.8-1.9-1.2-3-1.2h-2.3 M10.8,18.8h9.4 M10.8,22.5h4.7 M13.6,2.8H7.5c-0.8,0-1.4,0.6-1.4,1.4v21.6
	c0,0.8,0.6,1.4,1.4,1.4h15.9c0.8,0,1.4-0.6,1.4-1.4V14.1c0-3-1.2-5.8-3.3-8C19.5,4,16.6,2.8,13.6,2.8L13.6,2.8z"/>
</svg>
