<svg width="31" height="30" viewBox="0 0 31 30" fill="none" xmlns="http://www.w3.org/2000/svg">
<path fill-rule="evenodd" clip-rule="evenodd" d="M15.9468 4H16.0532C16.9731 4 17.7395 4 18.3473 4.08186C18.99 4.16781 19.5701 4.35814 20.0357 4.82372C20.5023 5.29033 20.6927 5.87051 20.7786 6.51209C20.84 6.96233 20.8553 7.49851 20.8594 8.1186C21.5225 8.14009 22.114 8.18 22.6399 8.24958C23.8392 8.41126 24.8102 8.75098 25.5767 9.51637C26.342 10.2828 26.6818 11.2539 26.8434 12.4531C27 13.6196 27 15.1085 27 16.9892V17.1038C27 18.9846 27 20.4744 26.8434 21.6399C26.6818 22.8392 26.342 23.8102 25.5767 24.5767C24.8102 25.342 23.8392 25.6818 22.6399 25.8434C21.4734 26 19.9846 26 18.1038 26H13.8962C12.0154 26 10.5256 26 9.36009 25.8434C8.16084 25.6818 7.18977 25.342 6.42335 24.5767C5.65795 23.8102 5.31823 22.8392 5.15656 21.6399C5 20.4734 5 18.9846 5 17.1038V16.9892C5 15.1085 5 13.6186 5.15656 12.4531C5.31823 11.2539 5.65795 10.2828 6.42335 9.51637C7.18977 8.75098 8.16084 8.41126 9.36009 8.24958C9.95104 8.17641 10.5453 8.1327 11.1406 8.1186C11.1447 7.49851 11.161 6.96233 11.2214 6.51209C11.3073 5.87051 11.4977 5.29033 11.9633 4.82372C12.4299 4.35814 13.01 4.16884 13.6516 4.08186C14.2605 4 15.0279 4 15.9468 4ZM12.6765 8.09507C13.0633 8.09302 13.4695 8.09302 13.8962 8.09302H18.1038C18.5305 8.09302 18.9367 8.09302 19.3235 8.09507C19.3194 7.51181 19.3051 7.07181 19.258 6.71674C19.1936 6.24502 19.0841 6.04242 18.9511 5.9094C18.818 5.77637 18.6154 5.66688 18.1427 5.60242C17.6495 5.53693 16.9864 5.53488 16 5.53488C15.0136 5.53488 14.3505 5.53693 13.8563 5.60344C13.3846 5.66688 13.182 5.77637 13.0489 5.91042C12.9159 6.04344 12.8064 6.24502 12.742 6.71674C12.6949 7.07079 12.6806 7.51079 12.6765 8.09507ZM9.56372 9.77116C8.53433 9.9093 7.94084 10.1692 7.50698 10.602C7.07516 11.0349 6.81526 11.6284 6.67712 12.6578C6.53591 13.7087 6.53386 15.0952 6.53386 17.0465C6.53386 18.9979 6.53591 20.3844 6.67712 21.4363C6.81526 22.4647 7.07516 23.0581 7.508 23.491C7.94084 23.9238 8.53433 24.1837 9.56372 24.3219C10.6156 24.4631 12.0011 24.4651 13.9525 24.4651H18.0455C19.9968 24.4651 21.3833 24.4631 22.4353 24.3219C23.4636 24.1837 24.0571 23.9238 24.49 23.491C24.9228 23.0581 25.1827 22.4647 25.3208 21.4353C25.462 20.3844 25.4641 18.9979 25.4641 17.0465C25.4641 15.0952 25.462 13.7097 25.3208 12.6567C25.1827 11.6284 24.9228 11.0349 24.49 10.602C24.0571 10.1692 23.4636 9.9093 22.4342 9.77116C21.3833 9.62995 19.9968 9.62791 18.0455 9.62791H13.9525C12.0011 9.62791 10.6167 9.62995 9.56372 9.77116ZM16 12.186C16.2035 12.186 16.3987 12.2669 16.5427 12.4108C16.6866 12.5547 16.7674 12.75 16.7674 12.9535V12.9637C17.8818 13.2441 18.814 14.1231 18.814 15.3407C18.814 15.5443 18.7331 15.7395 18.5892 15.8834C18.4453 16.0273 18.25 16.1082 18.0465 16.1082C17.843 16.1082 17.6478 16.0273 17.5038 15.8834C17.3599 15.7395 17.2791 15.5443 17.2791 15.3407C17.2791 14.9478 16.8432 14.4034 16 14.4034C15.1568 14.4034 14.7209 14.9478 14.7209 15.3407C14.7209 15.7337 15.1568 16.2791 16 16.2791C17.4172 16.2791 18.814 17.2614 18.814 18.7523C18.814 19.97 17.8818 20.8479 16.7674 21.1293V21.1395C16.7674 21.3431 16.6866 21.5383 16.5427 21.6822C16.3987 21.8261 16.2035 21.907 16 21.907C15.7965 21.907 15.6013 21.8261 15.4573 21.6822C15.3134 21.5383 15.2326 21.3431 15.2326 21.1395V21.1293C14.1182 20.8489 13.186 19.97 13.186 18.7523C13.186 18.5487 13.2669 18.3535 13.4108 18.2096C13.5547 18.0657 13.75 17.9848 13.9535 17.9848C14.157 17.9848 14.3522 18.0657 14.4962 18.2096C14.6401 18.3535 14.7209 18.5487 14.7209 18.7523C14.7209 19.1452 15.1568 19.6896 16 19.6896C16.8432 19.6896 17.2791 19.1452 17.2791 18.7523C17.2791 18.3593 16.8432 17.814 16 17.814C14.5828 17.814 13.186 16.8316 13.186 15.3407C13.186 14.1231 14.1182 13.2441 15.2326 12.9637V12.9535C15.2326 12.75 15.3134 12.5547 15.4573 12.4108C15.6013 12.2669 15.7965 12.186 16 12.186Z" fill="#D4D4D8"/>
</svg>
