<svg width="31" height="30" viewBox="0 0 31 30" fill="none" xmlns="http://www.w3.org/2000/svg">
<path fill-rule="evenodd" clip-rule="evenodd" d="M15.435 1.5625H15.565C16.6888 1.5625 17.625 1.5625 18.3675 1.6625C19.1525 1.7675 19.8612 2 20.43 2.56875C21 3.13875 21.2325 3.8475 21.3375 4.63125C21.4125 5.18125 21.4313 5.83625 21.4363 6.59375C22.2463 6.62 22.9688 6.66875 23.6112 6.75375C25.0763 6.95125 26.2625 7.36625 27.1987 8.30125C28.1337 9.2375 28.5487 10.4237 28.7463 11.8888C28.9375 13.3137 28.9375 15.1325 28.9375 17.43V17.57C28.9375 19.8675 28.9375 21.6875 28.7463 23.1112C28.5487 24.5763 28.1337 25.7625 27.1987 26.6987C26.2625 27.6337 25.0763 28.0487 23.6112 28.2463C22.1863 28.4375 20.3675 28.4375 18.07 28.4375H12.93C10.6325 28.4375 8.8125 28.4375 7.38875 28.2463C5.92375 28.0487 4.7375 27.6337 3.80125 26.6987C2.86625 25.7625 2.45125 24.5763 2.25375 23.1112C2.0625 21.6863 2.0625 19.8675 2.0625 17.57V17.43C2.0625 15.1325 2.0625 13.3125 2.25375 11.8888C2.45125 10.4237 2.86625 9.2375 3.80125 8.30125C4.7375 7.36625 5.92375 6.95125 7.38875 6.75375C8.11065 6.66437 8.83654 6.61097 9.56375 6.59375C9.56875 5.83625 9.58875 5.18125 9.6625 4.63125C9.7675 3.8475 10 3.13875 10.5688 2.56875C11.1388 2 11.8475 1.76875 12.6313 1.6625C13.375 1.5625 14.3125 1.5625 15.435 1.5625ZM11.44 6.565C11.9125 6.5625 12.4088 6.5625 12.93 6.5625H18.07C18.5912 6.5625 19.0875 6.5625 19.56 6.565C19.555 5.8525 19.5375 5.315 19.48 4.88125C19.4013 4.305 19.2675 4.0575 19.105 3.895C18.9425 3.7325 18.695 3.59875 18.1175 3.52C17.515 3.44 16.705 3.4375 15.5 3.4375C14.295 3.4375 13.485 3.44 12.8812 3.52125C12.305 3.59875 12.0575 3.7325 11.895 3.89625C11.7325 4.05875 11.5988 4.305 11.52 4.88125C11.4625 5.31375 11.445 5.85125 11.44 6.565ZM7.6375 8.6125C6.38 8.78125 5.655 9.09875 5.125 9.6275C4.5975 10.1562 4.28 10.8813 4.11125 12.1388C3.93875 13.4225 3.93625 15.1163 3.93625 17.5C3.93625 19.8837 3.93875 21.5775 4.11125 22.8625C4.28 24.1188 4.5975 24.8438 5.12625 25.3725C5.655 25.9013 6.38 26.2188 7.6375 26.3875C8.9225 26.56 10.615 26.5625 12.9987 26.5625H17.9987C20.3825 26.5625 22.0763 26.56 23.3612 26.3875C24.6175 26.2188 25.3425 25.9013 25.8713 25.3725C26.4 24.8438 26.7175 24.1187 26.8862 22.8612C27.0587 21.5775 27.0613 19.8837 27.0613 17.5C27.0613 15.1163 27.0587 13.4237 26.8862 12.1375C26.7175 10.8813 26.4 10.1562 25.8713 9.6275C25.3425 9.09875 24.6175 8.78125 23.36 8.6125C22.0763 8.44 20.3825 8.4375 17.9987 8.4375H12.9987C10.615 8.4375 8.92375 8.44 7.6375 8.6125ZM15.5 11.5625C15.7486 11.5625 15.9871 11.6613 16.1629 11.8371C16.3387 12.0129 16.4375 12.2514 16.4375 12.5V12.5125C17.7987 12.855 18.9375 13.9288 18.9375 15.4163C18.9375 15.6649 18.8387 15.9033 18.6629 16.0792C18.4871 16.255 18.2486 16.3538 18 16.3538C17.7514 16.3538 17.5129 16.255 17.3371 16.0792C17.1613 15.9033 17.0625 15.6649 17.0625 15.4163C17.0625 14.9363 16.53 14.2712 15.5 14.2712C14.47 14.2712 13.9375 14.9363 13.9375 15.4163C13.9375 15.8962 14.47 16.5625 15.5 16.5625C17.2312 16.5625 18.9375 17.7625 18.9375 19.5837C18.9375 21.0712 17.7987 22.1437 16.4375 22.4875V22.5C16.4375 22.7486 16.3387 22.9871 16.1629 23.1629C15.9871 23.3387 15.7486 23.4375 15.5 23.4375C15.2514 23.4375 15.0129 23.3387 14.8371 23.1629C14.6613 22.9871 14.5625 22.7486 14.5625 22.5V22.4875C13.2013 22.145 12.0625 21.0712 12.0625 19.5837C12.0625 19.3351 12.1613 19.0967 12.3371 18.9208C12.5129 18.745 12.7514 18.6462 13 18.6462C13.2486 18.6462 13.4871 18.745 13.6629 18.9208C13.8387 19.0967 13.9375 19.3351 13.9375 19.5837C13.9375 20.0637 14.47 20.7288 15.5 20.7288C16.53 20.7288 17.0625 20.0637 17.0625 19.5837C17.0625 19.1038 16.53 18.4375 15.5 18.4375C13.7688 18.4375 12.0625 17.2375 12.0625 15.4163C12.0625 13.9288 13.2013 12.855 14.5625 12.5125V12.5C14.5625 12.2514 14.6613 12.0129 14.8371 11.8371C15.0129 11.6613 15.2514 11.5625 15.5 11.5625Z" fill="#D4D4D8"/>
</svg>
