<svg width="16" height="16" viewBox="0 0 16 16" fill="none" xmlns="http://www.w3.org/2000/svg">
<path d="M14.7385 7.50042H13.0902L12.1467 2.73156C12.123 2.58462 12.0373 2.4548 11.9113 2.37553C11.7853 2.29616 11.6313 2.27475 11.4884 2.31687L8 3.35357L4.51163 2.31687C4.36873 2.27475 4.21474 2.29615 4.08874 2.37553C3.96274 2.45479 3.877 2.58461 3.85328 2.73156L2.90982 7.50042H1.26151C1.07627 7.50042 0.90515 7.59923 0.812586 7.7596C0.720023 7.91996 0.720023 8.11759 0.812586 8.27795C0.90515 8.43832 1.07627 8.53713 1.26151 8.53713H14.7387C14.924 8.53713 15.0951 8.43832 15.1876 8.27795C15.2802 8.11759 15.2802 7.91996 15.1876 7.7596C15.0951 7.59923 14.924 7.50042 14.7387 7.50042H14.7385ZM4.07076 6.98207L4.27811 5.94536H11.7217L11.929 6.98207H4.07076Z" fill="#06B6D4"/>
<path d="M12.6649 9.57385H9.55481C9.2799 9.57385 9.01619 9.68308 8.82171 9.87746C8.62732 10.072 8.5181 10.3357 8.5181 10.6106H7.48139C7.48139 10.3356 7.37217 10.0719 7.17778 9.87746C6.98329 9.68308 6.71959 9.57385 6.44468 9.57385H3.33456C3.05965 9.57385 2.79595 9.68308 2.60146 9.87746C2.40708 10.072 2.29785 10.3357 2.29785 10.6106V12.684C2.29785 12.9589 2.40708 13.2226 2.60146 13.4171C2.79596 13.6115 3.05965 13.7207 3.33456 13.7207H6.44468C6.71959 13.7207 6.9833 13.6115 7.17778 13.4171C7.37217 13.2226 7.48139 12.9589 7.48139 12.684V11.6473H8.5181V12.684C8.5181 12.9589 8.62732 13.2226 8.82171 13.4171C9.01621 13.6115 9.2799 13.7207 9.55481 13.7207H12.6649C12.9398 13.7207 13.2035 13.6115 13.398 13.4171C13.5924 13.2226 13.7016 12.9589 13.7016 12.684V10.6106C13.7016 10.3356 13.5924 10.0719 13.398 9.87746C13.2035 9.68308 12.9398 9.57385 12.6649 9.57385Z" fill="#06B6D4"/>
</svg>
