<svg width="31" height="30" viewBox="0 0 31 30" fill="none" xmlns="http://www.w3.org/2000/svg">
<path d="M10.8889 8.88889V18.6667C10.8889 19.315 11.1464 19.9367 11.6049 20.3951C12.0633 20.8536 12.685 21.1111 13.3333 21.1111H20.6667M10.8889 8.88889V6.44444C10.8889 5.79614 11.1464 5.17438 11.6049 4.71596C12.0633 4.25754 12.685 4 13.3333 4H18.9384C19.2626 4.00007 19.5734 4.12888 19.8026 4.35811L25.1974 9.753C25.4267 9.98216 25.5555 10.293 25.5556 10.6171V18.6667C25.5556 19.315 25.298 19.9367 24.8396 20.3951C24.3812 20.8536 23.7594 21.1111 23.1111 21.1111H20.6667M10.8889 8.88889H8.44444C7.79614 8.88889 7.17438 9.14643 6.71596 9.60485C6.25754 10.0633 6 10.685 6 11.3333V23.5556C6 24.2039 6.25754 24.8256 6.71596 25.284C7.17438 25.7425 7.79614 26 8.44444 26H18.2222C18.8705 26 19.4923 25.7425 19.9507 25.284C20.4091 24.8256 20.6667 24.2039 20.6667 23.5556V21.1111" stroke="#D4D4D8" stroke-width="1.5" stroke-linecap="round" stroke-linejoin="round"/>
</svg>
