<svg width="30" height="32" viewBox="0 0 30 32" fill="none" xmlns="http://www.w3.org/2000/svg">
<path d="M8.33335 7.66667V21C8.33335 21.8841 8.68454 22.7319 9.30967 23.357C9.93479 23.9821 10.7826 24.3333 11.6667 24.3333H21.6667M8.33335 7.66667V4.33333C8.33335 3.44928 8.68454 2.60143 9.30967 1.97631C9.93479 1.35119 10.7826 1 11.6667 1H19.31C19.752 1.00009 20.1759 1.17575 20.4884 1.48833L27.845 8.845C28.1576 9.15749 28.3333 9.58134 28.3334 10.0233V21C28.3334 21.8841 27.9822 22.7319 27.357 23.357C26.7319 23.9821 25.8841 24.3333 25 24.3333H21.6667M8.33335 7.66667H5.00002C4.11597 7.66667 3.26812 8.01786 2.643 8.64298C2.01788 9.2681 1.66669 10.1159 1.66669 11V27.6667C1.66669 28.5507 2.01788 29.3986 2.643 30.0237C3.26812 30.6488 4.11597 31 5.00002 31H18.3334C19.2174 31 20.0653 30.6488 20.6904 30.0237C21.3155 29.3986 21.6667 28.5507 21.6667 27.6667V24.3333" stroke="#A1A1AA" stroke-width="2" stroke-linecap="round" stroke-linejoin="round"/>
</svg>
