<svg width="31" height="30" viewBox="0 0 31 30" fill="none" xmlns="http://www.w3.org/2000/svg">
<path d="M10.5 8.75V18.75C10.5 19.413 10.7634 20.0489 11.2322 20.5178C11.7011 20.9866 12.337 21.25 13 21.25H20.5M10.5 8.75V6.25C10.5 5.58696 10.7634 4.95107 11.2322 4.48223C11.7011 4.01339 12.337 3.75 13 3.75H18.7325C19.064 3.75007 19.3819 3.88181 19.6163 4.11625L25.1338 9.63375C25.3682 9.86812 25.4999 10.186 25.5 10.5175V18.75C25.5 19.413 25.2366 20.0489 24.7678 20.5178C24.2989 20.9866 23.663 21.25 23 21.25H20.5M10.5 8.75H8C7.33696 8.75 6.70107 9.01339 6.23223 9.48223C5.76339 9.95107 5.5 10.587 5.5 11.25V23.75C5.5 24.413 5.76339 25.0489 6.23223 25.5178C6.70107 25.9866 7.33696 26.25 8 26.25H18C18.663 26.25 19.2989 25.9866 19.7678 25.5178C20.2366 25.0489 20.5 24.413 20.5 23.75V21.25" stroke="#D4D4D8" stroke-width="1.5" stroke-linecap="round" stroke-linejoin="round"/>
</svg>
