<svg width="33" height="30" viewBox="0 0 33 30" fill="none" xmlns="http://www.w3.org/2000/svg">
<path d="M27 25H22.8V6.33333C22.8 5.97971 22.8885 5.64057 23.046 5.39052C23.2036 5.14048 23.4172 5 23.64 5H26.16C26.3828 5 26.5964 5.14048 26.754 5.39052C26.9115 5.64057 27 5.97971 27 6.33333V25ZM18.6 25H14.4V10.3333C14.4 9.97971 14.4885 9.64057 14.646 9.39052C14.8036 9.14048 15.0172 9 15.24 9H17.76C17.9828 9 18.1964 9.14048 18.354 9.39052C18.5115 9.64057 18.6 9.97971 18.6 10.3333V25ZM10.2 25H6V14.3333C6 13.9797 6.0885 13.6406 6.24603 13.3905C6.40356 13.1405 6.61722 13 6.84 13H9.36C9.58278 13 9.79644 13.1405 9.95397 13.3905C10.1115 13.6406 10.2 13.9797 10.2 14.3333V25Z" stroke="#D4D4D8" stroke-width="1.5" stroke-linecap="round" stroke-linejoin="round"/>
</svg>
