<svg width="32" height="26" viewBox="0 0 32 26" fill="none" xmlns="http://www.w3.org/2000/svg">
<path d="M1 6.33398L14.15 15.1007C14.6978 15.4661 15.3415 15.6611 16 15.6611C16.6585 15.6611 17.3022 15.4661 17.85 15.1007L31 6.33398M4.33333 24.6673H27.6667C28.5507 24.6673 29.3986 24.3161 30.0237 23.691C30.6488 23.0659 31 22.218 31 21.334V4.66732C31 3.78326 30.6488 2.93542 30.0237 2.31029C29.3986 1.68517 28.5507 1.33398 27.6667 1.33398H4.33333C3.44928 1.33398 2.60143 1.68517 1.97631 2.31029C1.35119 2.93542 1 3.78326 1 4.66732V21.334C1 22.218 1.35119 23.0659 1.97631 23.691C2.60143 24.3161 3.44928 24.6673 4.33333 24.6673Z" stroke="#A1A1AA" stroke-width="2" stroke-linecap="round" stroke-linejoin="round"/>
</svg>
