<svg width="31" height="30" viewBox="0 0 31 30" fill="none" xmlns="http://www.w3.org/2000/svg">
<path d="M4.25 10L14.1125 16.575C14.5233 16.8491 15.0061 16.9954 15.5 16.9954C15.9939 16.9954 16.4767 16.8491 16.8875 16.575L26.75 10M6.75 23.75H24.25C24.913 23.75 25.5489 23.4866 26.0178 23.0178C26.4866 22.5489 26.75 21.913 26.75 21.25V8.75C26.75 8.08696 26.4866 7.45107 26.0178 6.98223C25.5489 6.51339 24.913 6.25 24.25 6.25H6.75C6.08696 6.25 5.45107 6.51339 4.98223 6.98223C4.51339 7.45107 4.25 8.08696 4.25 8.75V21.25C4.25 21.913 4.51339 22.5489 4.98223 23.0178C5.45107 23.4866 6.08696 23.75 6.75 23.75Z" stroke="#D4D4D8" stroke-width="1.5" stroke-linecap="round" stroke-linejoin="round"/>
</svg>
