<svg width="31" height="30" viewBox="0 0 31 30" fill="none" xmlns="http://www.w3.org/2000/svg">
<path d="M5 9.66667L14.6433 16.0956C15.045 16.3636 15.5171 16.5066 16 16.5066C16.4829 16.5066 16.955 16.3636 17.3567 16.0956L27 9.66667M7.44444 23.1111H24.5556C25.2039 23.1111 25.8256 22.8536 26.284 22.3951C26.7425 21.9367 27 21.315 27 20.6667V8.44444C27 7.79614 26.7425 7.17438 26.284 6.71596C25.8256 6.25754 25.2039 6 24.5556 6H7.44444C6.79614 6 6.17438 6.25754 5.71596 6.71596C5.25754 7.17438 5 7.79614 5 8.44444V20.6667C5 21.315 5.25754 21.9367 5.71596 22.3951C6.17438 22.8536 6.79614 23.1111 7.44444 23.1111Z" stroke="#D4D4D8" stroke-width="1.5" stroke-linecap="round" stroke-linejoin="round"/>
</svg>
