<svg width="25" height="25" viewBox="0 0 25 25" fill="none" xmlns="http://www.w3.org/2000/svg">
<g id="Deals Pipeline">
<path id="Vector" d="M6.25 3.125C5.4212 3.125 4.62634 3.45424 4.04029 4.04029C3.45424 4.62634 3.125 5.4212 3.125 6.25V8.59375C3.125 9.42255 3.45424 10.2174 4.04029 10.8035C4.62634 11.3895 5.4212 11.7188 6.25 11.7188H8.59375C9.42255 11.7188 10.2174 11.3895 10.8035 10.8035C11.3895 10.2174 11.7188 9.42255 11.7188 8.59375V6.25C11.7188 5.4212 11.3895 4.62634 10.8035 4.04029C10.2174 3.45424 9.42255 3.125 8.59375 3.125H6.25ZM16.4062 3.125C15.5774 3.125 14.7826 3.45424 14.1965 4.04029C13.6105 4.62634 13.2812 5.4212 13.2812 6.25V8.59375C13.2812 9.42255 13.6105 10.2174 14.1965 10.8035C14.7826 11.3895 15.5774 11.7188 16.4062 11.7188H18.75C19.5788 11.7188 20.3737 11.3895 20.9597 10.8035C21.5458 10.2174 21.875 9.42255 21.875 8.59375V6.25C21.875 5.4212 21.5458 4.62634 20.9597 4.04029C20.3737 3.45424 19.5788 3.125 18.75 3.125H16.4062ZM6.25 13.2812C5.4212 13.2812 4.62634 13.6105 4.04029 14.1965C3.45424 14.7826 3.125 15.5774 3.125 16.4062V18.75C3.125 19.5788 3.45424 20.3737 4.04029 20.9597C4.62634 21.5458 5.4212 21.875 6.25 21.875H8.59375C9.42255 21.875 10.2174 21.5458 10.8035 20.9597C11.3895 20.3737 11.7188 19.5788 11.7188 18.75V16.4062C11.7188 15.5774 11.3895 14.7826 10.8035 14.1965C10.2174 13.6105 9.42255 13.2812 8.59375 13.2812H6.25ZM18.3594 14.0625C18.3594 13.8553 18.2771 13.6566 18.1306 13.5101C17.984 13.3636 17.7853 13.2812 17.5781 13.2812C17.3709 13.2812 17.1722 13.3636 17.0257 13.5101C16.8792 13.6566 16.7969 13.8553 16.7969 14.0625V16.7969H14.0625C13.8553 16.7969 13.6566 16.8792 13.5101 17.0257C13.3636 17.1722 13.2812 17.3709 13.2812 17.5781C13.2812 17.7853 13.3636 17.984 13.5101 18.1306C13.6566 18.2771 13.8553 18.3594 14.0625 18.3594H16.7969V21.0938C16.7969 21.3009 16.8792 21.4997 17.0257 21.6462C17.1722 21.7927 17.3709 21.875 17.5781 21.875C17.7853 21.875 17.984 21.7927 18.1306 21.6462C18.2771 21.4997 18.3594 21.3009 18.3594 21.0938V18.3594H21.0938C21.3009 18.3594 21.4997 18.2771 21.6462 18.1306C21.7927 17.984 21.875 17.7853 21.875 17.5781C21.875 17.3709 21.7927 17.1722 21.6462 17.0257C21.4997 16.8792 21.3009 16.7969 21.0938 16.7969H18.3594V14.0625Z" fill="#27272A"/>
</g>
</svg>
