<svg width="32" height="32" viewBox="0 0 32 32" fill="none" xmlns="http://www.w3.org/2000/svg">
<path d="M16 3.25667C16.8957 2.24117 18.0795 1.52251 19.3937 1.19632C20.7079 0.870131 22.0903 0.951873 23.3569 1.43067C24.6235 1.90947 25.7143 2.76262 26.4841 3.8766C27.254 4.99058 27.6663 6.31257 27.6663 7.66667C27.6663 9.02076 27.254 10.3428 26.4841 11.4567C25.7143 12.5707 24.6235 13.4239 23.3569 13.9027C22.0903 14.3815 20.7079 14.4632 19.3937 14.137C18.0795 13.8108 16.8957 13.0922 16 12.0767M21 31H31V29.3333C31.0002 27.5778 30.5384 25.8532 29.6608 24.3328C28.7832 22.8124 27.5208 21.5499 26.0006 20.672C24.4804 19.7942 22.7558 19.332 21.0004 19.3319C19.2449 19.3319 17.5203 19.7939 16 20.6717M21 31H1V29.3333C1 26.6812 2.05357 24.1376 3.92893 22.2623C5.8043 20.3869 8.34783 19.3333 11 19.3333C13.6522 19.3333 16.1957 20.3869 18.0711 22.2623C19.9464 24.1376 21 26.6812 21 29.3333V31ZM17.6667 7.66667C17.6667 9.43478 16.9643 11.1305 15.714 12.3807C14.4638 13.631 12.7681 14.3333 11 14.3333C9.23189 14.3333 7.5362 13.631 6.28595 12.3807C5.03571 11.1305 4.33333 9.43478 4.33333 7.66667C4.33333 5.89856 5.03571 4.20286 6.28595 2.95262C7.5362 1.70238 9.23189 1 11 1C12.7681 1 14.4638 1.70238 15.714 2.95262C16.9643 4.20286 17.6667 5.89856 17.6667 7.66667V7.66667Z" stroke="#A1A1AA" stroke-width="2" stroke-linecap="round" stroke-linejoin="round"/>
</svg>
