<svg width="28" height="28" viewBox="0 0 28 28" fill="none" xmlns="http://www.w3.org/2000/svg">
<path d="M1 2C1 1.73478 1.10536 1.48043 1.29289 1.29289C1.48043 1.10536 1.73478 1 2 1H26C26.2652 1 26.5196 1.10536 26.7071 1.29289C26.8946 1.48043 27 1.73478 27 2V6C27 6.26522 26.8946 6.51957 26.7071 6.70711C26.5196 6.89464 26.2652 7 26 7H2C1.73478 7 1.48043 6.89464 1.29289 6.70711C1.10536 6.51957 1 6.26522 1 6V2ZM1 14C1 13.7348 1.10536 13.4804 1.29289 13.2929C1.48043 13.1054 1.73478 13 2 13H14C14.2652 13 14.5196 13.1054 14.7071 13.2929C14.8946 13.4804 15 13.7348 15 14V26C15 26.2652 14.8946 26.5196 14.7071 26.7071C14.5196 26.8946 14.2652 27 14 27H2C1.73478 27 1.48043 26.8946 1.29289 26.7071C1.10536 26.5196 1 26.2652 1 26V14ZM21.2929 13.2929C21.4804 13.1054 21.7348 13 22 13H26C26.2652 13 26.5196 13.1054 26.7071 13.2929C26.8946 13.4804 27 13.7348 27 14V26C27 26.2652 26.8946 26.5196 26.7071 26.7071C26.5196 26.8946 26.2652 27 26 27H22C21.7348 27 21.4804 26.8946 21.2929 26.7071C21.1054 26.5196 21 26.2652 21 26V14C21 13.7348 21.1054 13.4804 21.2929 13.2929Z" stroke="#A1A1AA" stroke-width="2"/>
</svg>
