<svg width="25" height="25" viewBox="0 0 25 25" fill="none" xmlns="http://www.w3.org/2000/svg">
<g id="Frame">
<path id="Vector" d="M5.85938 3.90625C5.13417 3.90625 4.43867 4.19434 3.92588 4.70713C3.41309 5.21992 3.125 5.91542 3.125 6.64062C3.125 7.36583 3.41309 8.06133 3.92588 8.57412C4.43867 9.08692 5.13417 9.375 5.85938 9.375H19.1406C19.8658 9.375 20.5613 9.08692 21.0741 8.57412C21.5869 8.06133 21.875 7.36583 21.875 6.64062C21.875 5.91542 21.5869 5.21992 21.0741 4.70713C20.5613 4.19434 19.8658 3.90625 19.1406 3.90625H5.85938ZM3.90625 11.7187C3.69905 11.7187 3.50034 11.8011 3.35382 11.9476C3.20731 12.0941 3.125 12.2928 3.125 12.5C3.125 12.7072 3.20731 12.9059 3.35382 13.0524C3.50034 13.1989 3.69905 13.2812 3.90625 13.2812H21.0938C21.3009 13.2812 21.4997 13.1989 21.6462 13.0524C21.7927 12.9059 21.875 12.7072 21.875 12.5C21.875 12.2928 21.7927 12.0941 21.6462 11.9476C21.4997 11.8011 21.3009 11.7187 21.0938 11.7187H3.90625ZM3.125 16.4062C3.125 16.199 3.20731 16.0003 3.35382 15.8538C3.50034 15.7073 3.69905 15.625 3.90625 15.625H21.0938C21.3009 15.625 21.4997 15.7073 21.6462 15.8538C21.7927 16.0003 21.875 16.199 21.875 16.4062C21.875 16.6135 21.7927 16.8122 21.6462 16.9587C21.4997 17.1052 21.3009 17.1875 21.0938 17.1875H3.90625C3.69905 17.1875 3.50034 17.1052 3.35382 16.9587C3.20731 16.8122 3.125 16.6135 3.125 16.4062ZM3.90625 19.5312C3.69905 19.5312 3.50034 19.6136 3.35382 19.7601C3.20731 19.9066 3.125 20.1053 3.125 20.3125C3.125 20.5197 3.20731 20.7184 3.35382 20.8649C3.50034 21.0114 3.69905 21.0938 3.90625 21.0938H21.0938C21.3009 21.0938 21.4997 21.0114 21.6462 20.8649C21.7927 20.7184 21.875 20.5197 21.875 20.3125C21.875 20.1053 21.7927 19.9066 21.6462 19.7601C21.4997 19.6136 21.3009 19.5312 21.0938 19.5312H3.90625Z" fill="#27272A"/>
</g>
</svg>