<svg width="25" height="25" viewBox="0 0 25 25" fill="none" xmlns="http://www.w3.org/2000/svg">
<g id="Frame">
<path id="Vector" d="M16.4062 9.375V5.46875C16.4062 4.84715 16.1593 4.25101 15.7198 3.81147C15.2802 3.37193 14.6841 3.125 14.0625 3.125H7.8125C7.1909 3.125 6.59476 3.37193 6.15522 3.81147C5.71568 4.25101 5.46875 4.84715 5.46875 5.46875V19.5312C5.46875 20.1529 5.71568 20.749 6.15522 21.1885C6.59476 21.6281 7.1909 21.875 7.8125 21.875H14.0625C14.6841 21.875 15.2802 21.6281 15.7198 21.1885C16.1593 20.749 16.4062 20.1529 16.4062 19.5312V15.625M19.5312 15.625L22.6562 12.5M22.6562 12.5L19.5312 9.375M22.6562 12.5H9.375" stroke="#27272A" stroke-width="1.5" stroke-linecap="round" stroke-linejoin="round"/>
</g>
</svg>